<?xml version="1.0" ?><svg height="32" id="svg4152" version="1.1" viewBox="0 0 32 32" width="32" xmlns="http://www.w3.org/2000/svg" xmlns:cc="http://creativecommons.org/ns#" xmlns:dc="http://purl.org/dc/elements/1.1/" xmlns:inkscape="http://www.inkscape.org/namespaces/inkscape" xmlns:rdf="http://www.w3.org/1999/02/22-rdf-syntax-ns#" xmlns:sodipodi="http://sodipodi.sourceforge.net/DTD/sodipodi-0.dtd" xmlns:svg="http://www.w3.org/2000/svg"><defs id="defs4154"/><g id="layer1"><g id="g4489" style="fill:none;stroke:#0e6ea1;stroke-opacity:1" transform="matrix(1.1425096,0,0,1.1425096,-50.415049,-2.2410335)"><path d="M 63.415438,9.8101387 A 5.2845939,5.2845939 0 0 1 58.130845,15.094732 5.2845939,5.2845939 0 0 1 52.846253,9.8101387 5.2845939,5.2845939 0 0 1 58.130845,4.525545 5.2845939,5.2845939 0 0 1 63.415438,9.8101387 Z" id="path4721" style="opacity:1;fill:none;fill-opacity:1;stroke:#0e6ea1;stroke-width:1.04731786;stroke-linecap:round;stroke-linejoin:round;stroke-miterlimit:4;stroke-dasharray:none;stroke-opacity:1"/><path d="m 48.840243,16.482012 18.508512,0 c 1.964342,0 2.788649,1.581401 2.788649,3.545743 l 0,7.401878 -24.013117,0 0,-7.401878 c 0,-1.964342 0.751614,-3.545743 2.715956,-3.545743 z" id="rect4427" style="opacity:1;fill:none;fill-opacity:1;stroke:#0e6ea1;stroke-width:1;stroke-linecap:round;stroke-linejoin:round;stroke-miterlimit:4;stroke-dasharray:none;stroke-opacity:1"/></g></g></svg>